<?xml version="1.0" encoding="UTF-8" standalone="no"?>
<!-- Created with Inkscape (http://www.inkscape.org/) -->

<svg
   width="210mm"
   height="297mm"
   viewBox="0 0 210 297"
   version="1.1"
   id="svg5"
   inkscape:version="1.1.2 (0a00cf5339, 2022-02-04)"
   sodipodi:docname="FlorDoMate.svg"
   xmlns:inkscape="http://www.inkscape.org/namespaces/inkscape"
   xmlns:sodipodi="http://sodipodi.sourceforge.net/DTD/sodipodi-0.dtd"
   xmlns="http://www.w3.org/2000/svg"
   xmlns:svg="http://www.w3.org/2000/svg">
  <sodipodi:namedview
     id="namedview7"
     pagecolor="#505050"
     bordercolor="#eeeeee"
     borderopacity="1"
     inkscape:pageshadow="0"
     inkscape:pageopacity="0"
     inkscape:pagecheckerboard="0"
     inkscape:document-units="mm"
     showgrid="false"
     inkscape:zoom="0.73940797"
     inkscape:cx="97.375202"
     inkscape:cy="561.25984"
     inkscape:window-width="1920"
     inkscape:window-height="1010"
     inkscape:window-x="0"
     inkscape:window-y="0"
     inkscape:window-maximized="1"
     inkscape:current-layer="layer1" />
  <defs
     id="defs2" />
  <g
     inkscape:label="Camada 1"
     inkscape:groupmode="layer"
     id="layer1">
    <path
       id="rect375-3"
       style="fill:#808080;fill-opacity:1;fill-rule:evenodd;stroke-width:0.216831"
       d="M 93.143148,79.898998 72.56456,64.218301 37.724825,146.38383 108.74785,200.503 54.15173,129.84582 Z" />
    <path
       id="rect375-3-6"
       style="fill:#808080;fill-opacity:1;fill-rule:evenodd;stroke-width:0.216831"
       d="m 119.33124,200.503 71.02358,-54.11917 -34.83974,-82.165529 -20.27576,15.449703 39.01054,50.486326 z" />
    <path
       id="path1750"
       style="fill:#808080;fill-rule:evenodd;stroke-width:0.216831"
       d="m 123.44621,148.92021 -9.71,-12.56615 -9.6206,12.32327 9.71,12.56668 z" />
    <path
       id="path2064"
       style="fill:#e6e6e6;fill-rule:evenodd;stroke-width:0.216831"
       d="m 113.64681,94.001496 -42.187607,54.040624 32.870347,42.54004 9.6206,-12.32328 -23.160862,-29.97388 22.946922,-29.39355 23.16086,29.97388 -22.94692,29.39355 9.71,12.56616 32.567,-41.71683 z" />
    <path
       id="path1702"
       style="fill:#999999;fill-rule:evenodd;stroke-width:0.216831"
       d="M 114.36201,57.909641 59.4434,128.25831 71.459203,143.80879 113.64681,89.768162 156.22715,144.87487 168.95816,128.56682 Z" />
  </g>
</svg>
